<svg width="32" height="32" viewBox="0 0 32 32" fill="none" xmlns="http://www.w3.org/2000/svg">
<circle cx="16" cy="16" r="16" fill="#F7F7F7"/>
<path d="M16 17.05L10.75 22.3C10.6 22.45 10.425 22.525 10.225 22.525C10.025 22.525 9.84998 22.45 9.69998 22.3C9.54998 22.15 9.47498 21.975 9.47498 21.775C9.47498 21.575 9.54998 21.4 9.69998 21.25L14.95 16L9.69998 10.75C9.54998 10.6 9.47498 10.425 9.47498 10.225C9.47498 10.025 9.54998 9.84998 9.69998 9.69998C9.84998 9.54998 10.025 9.47498 10.225 9.47498C10.425 9.47498 10.6 9.54998 10.75 9.69998L16 14.95L21.25 9.69998C21.4 9.54998 21.575 9.47498 21.775 9.47498C21.975 9.47498 22.15 9.54998 22.3 9.69998C22.45 9.84998 22.525 10.025 22.525 10.225C22.525 10.425 22.45 10.6 22.3 10.75L17.05 16L22.3 21.25C22.45 21.4 22.525 21.575 22.525 21.775C22.525 21.975 22.45 22.15 22.3 22.3C22.15 22.45 21.975 22.525 21.775 22.525C21.575 22.525 21.4 22.45 21.25 22.3L16 17.05Z" fill="#606880"/>
</svg>
